<svg width="558" height="558" viewBox="0 0 558 558" fill="none" xmlns="http://www.w3.org/2000/svg">
<path d="M557.661 557.661H0V0H557.661V557.661Z" fill="#073769"/>
<path d="M527.029 397.821C521.167 393.453 515.434 388.953 509.695 384.459C503.988 379.934 498.287 375.401 492.65 370.804C486.977 366.244 481.393 361.591 475.779 356.971L459.063 342.98L442.487 328.847C436.961 324.136 431.523 319.336 426.036 314.585C420.542 309.842 415.123 305.023 409.695 300.212C404.275 295.393 398.809 290.622 393.448 285.744L377.298 271.176L361.267 256.486C355.939 251.573 350.568 246.705 345.3 241.732L329.43 226.878C318.841 216.985 308.431 206.91 297.923 196.934L266.733 166.666H290.928L259.757 196.954L244.028 211.951C238.774 216.939 233.572 221.979 228.259 226.906L212.387 241.758C207.116 246.728 201.763 251.616 196.426 256.518L180.4 271.213L164.246 285.777C158.882 290.652 153.428 295.437 148.001 300.248C142.566 305.052 137.157 309.881 131.66 314.621L115.208 328.881L98.6287 343.012L81.9078 356.997C76.2884 361.613 70.7065 366.266 65.0299 370.823C59.3895 375.417 53.6871 379.948 47.9765 384.47C42.2342 388.96 36.4993 393.458 30.6321 397.821C35.1065 392.038 39.7131 386.391 44.3124 380.735C48.9436 375.113 53.5826 369.498 58.2837 363.947C62.9489 358.359 67.7086 352.867 72.4308 347.337L86.7345 330.887L101.18 314.582L115.753 298.406C120.598 293.001 125.53 287.685 130.437 282.344C135.351 277.01 140.239 271.649 145.216 266.379L160.087 250.507L175.086 234.766C180.09 229.523 185.08 224.266 190.15 219.091L205.303 203.507C210.332 198.289 215.471 193.184 220.558 188.026L235.854 172.588L266.733 142.004L278.838 130.014L290.928 142.004L321.788 172.607C331.963 182.923 342.236 193.137 352.33 203.535L367.485 219.117C372.559 224.289 377.529 229.566 382.543 234.799L397.537 250.544L412.412 266.412C417.392 271.679 422.267 277.053 427.189 282.379C432.103 287.714 437.025 293.04 441.873 298.442C446.728 303.836 451.632 309.181 456.447 314.616L470.896 330.918L485.205 347.363C489.932 352.888 494.69 358.381 499.359 363.966C504.063 369.514 508.704 375.127 513.338 380.746C517.941 386.398 522.549 392.043 527.029 397.821Z" fill="white"/>
<path d="M421.78 325.56C421.78 325.56 421.728 326.97 421.63 329.612C421.519 330.933 421.589 332.544 421.242 334.457C420.935 336.379 420.549 338.632 420.023 341.182C419.328 343.604 418.605 346.371 417.533 349.291C416.376 352.161 415.134 355.358 413.332 358.512C411.72 361.824 409.458 364.961 407.132 368.41C405.88 370.036 404.536 371.671 403.153 373.36C401.76 375.035 400.189 376.577 398.637 378.257C392.241 384.694 384.447 390.816 375.58 396.061C366.722 401.321 356.862 405.825 346.414 409.397C335.961 412.951 324.939 415.741 313.629 417.589C307.975 418.539 302.251 419.282 296.463 419.78C293.57 420.031 290.658 420.256 287.725 420.391L283.277 420.544L281.005 420.587L279.07 420.594C275.748 420.622 272.922 420.514 269.936 420.396C267.002 420.264 264.09 420.051 261.197 419.795C255.408 419.303 249.684 418.558 244.028 417.619C232.716 415.781 221.693 412.982 211.235 409.439C200.784 405.87 190.92 401.368 182.059 396.106C173.187 390.865 165.395 384.731 158.994 378.294C157.443 376.613 155.872 375.069 154.479 373.392C153.1 371.698 151.75 370.069 150.499 368.44C148.173 364.988 145.917 361.845 144.301 358.533C142.503 355.374 141.258 352.178 140.104 349.305C139.036 346.382 138.312 343.614 137.62 341.19C137.117 338.68 136.738 336.455 136.434 334.539C136.089 332.636 136.134 330.934 136.026 329.615C135.895 326.951 135.881 325.56 135.881 325.56C135.881 325.56 136.601 326.773 137.952 329.045C138.277 329.604 138.64 330.229 139.04 330.917C139.432 331.602 139.829 332.355 140.393 333.113C141.426 334.628 142.614 336.369 143.944 338.319C145.485 340.122 146.949 342.195 148.785 344.247C150.746 346.223 152.556 348.488 154.975 350.506C159.498 354.748 165.001 358.937 171.49 362.64C184.357 370.179 200.914 376.014 219.504 379.873C228.807 381.777 238.574 383.289 248.594 384.329C253.596 384.885 258.668 385.263 263.74 385.581C266.277 385.737 268.812 385.826 271.334 385.937C273.806 386.019 276.446 386.067 278.591 386.043L280.756 386.053L282.583 386.035L286.327 385.942C288.849 385.834 291.386 385.757 293.922 385.595C298.995 385.284 304.067 384.904 309.071 384.359C319.094 383.329 328.861 381.808 338.169 379.914C356.765 376.062 373.333 370.227 386.201 362.677C387.772 361.701 389.415 360.82 390.877 359.806C392.329 358.782 393.755 357.767 395.203 356.809C397.877 354.707 400.493 352.68 402.715 350.527C405.13 348.504 406.942 346.24 408.9 344.261C409.888 343.274 410.6 342.179 411.421 341.197C412.2 340.192 412.996 339.246 413.735 338.327C415.053 336.405 416.23 334.688 417.254 333.195C417.813 332.452 418.22 331.664 418.618 330.96C419.021 330.258 419.387 329.62 419.715 329.048C421.062 326.774 421.78 325.56 421.78 325.56Z" fill="white"/>
</svg>
