<svg xmlns="http://www.w3.org/2000/svg" width="3199" height="684" fill="none">
    <defs>
        <radialGradient id="Атмосфера_лого_07 1__c" cx="0" cy="0" r="1"
            gradientTransform="translate(1691.23 110.378) scale(307.262)"
            gradientUnits="userSpaceOnUse">
            <stop stop-color="#FC640E" />
            <stop offset=".268" stop-color="#086DBD" />
            <stop offset=".511" stop-color="#FDD93A" />
            <stop offset=".767" stop-color="#F00001" />
            <stop offset="1" stop-color="#010077" />
        </radialGradient>
        <radialGradient id="Атмосфера_лого_07 1__d" cx="0" cy="0" r="1"
            gradientTransform="translate(1682.52 122.181) scale(276.382)"
            gradientUnits="userSpaceOnUse">
            <stop offset=".376" stop-color="#F5F5F5" />
            <stop offset=".531" stop-color="#F0F0F0" />
            <stop offset=".711" stop-color="#E2E2E2" />
            <stop offset=".901" stop-color="#CBCBCB" />
            <stop offset=".995" stop-color="#BDBDBD" />
        </radialGradient>
        <radialGradient id="Атмосфера_лого_07 1__e" cx="0" cy="0" r="1"
            gradientTransform="translate(1682.52 122.18) scale(276.383)"
            gradientUnits="userSpaceOnUse">
            <stop offset=".376" stop-color="#F5F5F5" />
            <stop offset=".531" stop-color="#F0F0F0" />
            <stop offset=".711" stop-color="#E2E2E2" />
            <stop offset=".901" stop-color="#CBCBCB" />
            <stop offset=".995" stop-color="#BDBDBD" />
        </radialGradient>
        <radialGradient id="Атмосфера_лого_07 1__f" cx="0" cy="0" r="1"
            gradientTransform="translate(1682.52 122.181) scale(276.382)"
            gradientUnits="userSpaceOnUse">
            <stop offset=".376" stop-color="#F5F5F5" />
            <stop offset=".531" stop-color="#F0F0F0" />
            <stop offset=".711" stop-color="#E2E2E2" />
            <stop offset=".901" stop-color="#CBCBCB" />
            <stop offset=".995" stop-color="#BDBDBD" />
        </radialGradient>
        <radialGradient id="Атмосфера_лого_07 1__g" cx="0" cy="0" r="1"
            gradientTransform="translate(1682.52 122.181) scale(276.381)"
            gradientUnits="userSpaceOnUse">
            <stop offset=".376" stop-color="#F5F5F5" />
            <stop offset=".531" stop-color="#F0F0F0" />
            <stop offset=".711" stop-color="#E2E2E2" />
            <stop offset=".901" stop-color="#CBCBCB" />
            <stop offset=".995" stop-color="#BDBDBD" />
        </radialGradient>
        <radialGradient id="Атмосфера_лого_07 1__h" cx="0" cy="0" r="1"
            gradientTransform="translate(1682.51 122.179) scale(276.387)"
            gradientUnits="userSpaceOnUse">
            <stop offset=".376" stop-color="#F5F5F5" />
            <stop offset=".531" stop-color="#F0F0F0" />
            <stop offset=".711" stop-color="#E2E2E2" />
            <stop offset=".901" stop-color="#CBCBCB" />
            <stop offset=".995" stop-color="#BDBDBD" />
        </radialGradient>
        <radialGradient id="Атмосфера_лого_07 1__i" cx="0" cy="0" r="1"
            gradientTransform="translate(1682.52 122.181) scale(276.382)"
            gradientUnits="userSpaceOnUse">
            <stop offset=".376" stop-color="#F5F5F5" />
            <stop offset=".531" stop-color="#F0F0F0" />
            <stop offset=".711" stop-color="#E2E2E2" />
            <stop offset=".901" stop-color="#CBCBCB" />
            <stop offset=".995" stop-color="#BDBDBD" />
        </radialGradient>
        <radialGradient id="Атмосфера_лого_07 1__j" cx="0" cy="0" r="1"
            gradientTransform="translate(1682.52 122.181) scale(276.382)"
            gradientUnits="userSpaceOnUse">
            <stop offset=".376" stop-color="#F5F5F5" />
            <stop offset=".531" stop-color="#F0F0F0" />
            <stop offset=".711" stop-color="#E2E2E2" />
            <stop offset=".901" stop-color="#CBCBCB" />
            <stop offset=".995" stop-color="#BDBDBD" />
        </radialGradient>
        <radialGradient id="Атмосфера_лого_07 1__k" cx="0" cy="0" r="1"
            gradientTransform="translate(1682.52 122.181) scale(276.383)"
            gradientUnits="userSpaceOnUse">
            <stop offset=".376" stop-color="#F5F5F5" />
            <stop offset=".531" stop-color="#F0F0F0" />
            <stop offset=".711" stop-color="#E2E2E2" />
            <stop offset=".901" stop-color="#CBCBCB" />
            <stop offset=".995" stop-color="#BDBDBD" />
        </radialGradient>
        <radialGradient id="Атмосфера_лого_07 1__l" cx="0" cy="0" r="1"
            gradientTransform="translate(1682.52 122.181) scale(276.382)"
            gradientUnits="userSpaceOnUse">
            <stop offset=".376" stop-color="#F5F5F5" />
            <stop offset=".531" stop-color="#F0F0F0" />
            <stop offset=".711" stop-color="#E2E2E2" />
            <stop offset=".901" stop-color="#CBCBCB" />
            <stop offset=".995" stop-color="#BDBDBD" />
        </radialGradient>
        <radialGradient id="Атмосфера_лого_07 1__m" cx="0" cy="0" r="1"
            gradientTransform="translate(1691.23 99.578) scale(316.439)"
            gradientUnits="userSpaceOnUse">
            <stop offset=".169" stop-color="#fff" stop-opacity="0" />
            <stop offset=".263" stop-color="#FBFBFB" stop-opacity=".064" />
            <stop offset=".362" stop-color="#EEE" stop-opacity=".13" />
            <stop offset=".463" stop-color="#DAD9D9" stop-opacity=".198" />
            <stop offset=".566" stop-color="#BDBCBC" stop-opacity=".268" />
            <stop offset=".669" stop-color="#989696" stop-opacity=".338" />
            <stop offset=".774" stop-color="#6A6768" stop-opacity=".408" />
            <stop offset=".878" stop-color="#353132" stop-opacity=".478" />
            <stop offset=".91" stop-color="#231F20" stop-opacity=".5" />
        </radialGradient>
        <radialGradient id="Атмосфера_лого_07 1__n" cx="0" cy="0" r="1"
            gradientTransform="translate(1692.15 162.363) scale(147.29)"
            gradientUnits="userSpaceOnUse">
            <stop stop-color="#fff" />
            <stop offset=".133" stop-color="#FBFBFB" stop-opacity=".867" />
            <stop offset=".267" stop-color="#EFEFEF" stop-opacity=".733" />
            <stop offset=".401" stop-color="#DBDBDB" stop-opacity=".599" />
            <stop offset=".536" stop-color="#C0BEBF" stop-opacity=".464" />
            <stop offset=".671" stop-color="#9C9A9A" stop-opacity=".329" />
            <stop offset=".806" stop-color="#706D6E" stop-opacity=".194" />
            <stop offset=".939" stop-color="#3D393A" stop-opacity=".061" />
            <stop offset="1" stop-color="#231F20" stop-opacity="0" />
        </radialGradient>
        <linearGradient id="Атмосфера_лого_07 1__a" x1="97.577" x2="593.974" y1="326.98" y2="326.98"
            gradientUnits="userSpaceOnUse">
            <stop offset=".107" stop-color="#E3BC5D" />
            <stop offset=".164" stop-color="#DBB557" />
            <stop offset=".253" stop-color="#C4A046" />
            <stop offset=".364" stop-color="#A07F2A" />
            <stop offset=".374" stop-color="#9C7C27" />
            <stop offset=".456" stop-color="#A98B39" />
            <stop offset=".621" stop-color="#C9B368" />
            <stop offset=".732" stop-color="#E1D08B" />
            <stop offset=".866" stop-color="#C2A65B" />
            <stop offset="1" stop-color="#A17926" />
        </linearGradient>
        <linearGradient id="Атмосфера_лого_07 1__b" x1="202.826" x2="488.725" y1="436.142"
            y2="436.142" gradientUnits="userSpaceOnUse">
            <stop offset=".107" stop-color="#E3BC5D" />
            <stop offset=".164" stop-color="#DBB557" />
            <stop offset=".253" stop-color="#C4A046" />
            <stop offset=".364" stop-color="#A07F2A" />
            <stop offset=".374" stop-color="#9C7C27" />
            <stop offset=".456" stop-color="#A98B39" />
            <stop offset=".621" stop-color="#C9B368" />
            <stop offset=".732" stop-color="#E1D08B" />
            <stop offset=".866" stop-color="#C2A65B" />
            <stop offset="1" stop-color="#A17926" />
        </linearGradient>
    </defs>
    <path fill="#073769" d="M624.606 620.723H66.945V63.062h557.661v557.661Z" />
    <path fill="url(#Атмосфера_лого_07 1__a)"
        d="M593.974 460.883c-5.862-4.368-11.595-8.867-17.334-13.362-5.707-4.525-11.408-9.057-17.045-13.654-5.673-4.561-11.257-9.213-16.871-13.833l-16.716-13.991-16.576-14.134c-5.527-4.71-10.965-9.511-16.451-14.262-5.494-4.743-10.913-9.562-16.341-14.373-5.42-4.819-10.886-9.59-16.248-14.468l-16.15-14.568-16.03-14.69c-5.328-4.912-10.699-9.78-15.967-14.754l-15.87-14.854c-10.589-9.893-20.999-19.968-31.507-29.944l-31.19-30.267h24.195l-31.171 30.287-15.729 14.997c-5.254 4.988-10.456 10.028-15.77 14.955l-15.872 14.852c-5.27 4.97-10.623 9.858-15.961 14.761l-16.025 14.694-16.154 14.564c-5.364 4.876-10.818 9.66-16.245 14.471-5.435 4.804-10.844 9.633-16.341 14.373l-16.452 14.26-16.58 14.131-16.72 13.986c-5.62 4.615-11.202 9.269-16.878 13.826-5.641 4.594-11.343 9.124-17.054 13.647-5.742 4.49-11.477 8.987-17.344 13.35 4.474-5.782 9.081-11.43 13.68-17.085 4.631-5.623 9.27-11.238 13.972-16.789 4.665-5.588 9.424-11.08 14.147-16.61l14.303-16.45 14.446-16.305 14.573-16.176c4.844-5.405 9.777-10.721 14.684-16.062 4.914-5.334 9.802-10.695 14.779-15.965l14.871-15.872 14.999-15.741c5.004-5.242 9.993-10.5 15.064-15.675l15.153-15.584c5.028-5.218 10.167-10.323 15.255-15.481l15.296-15.438 30.879-30.584 12.105-11.989 12.09 11.989 30.86 30.604c10.175 10.315 20.448 20.53 30.542 30.927l15.155 15.582c5.074 5.172 10.044 10.449 15.057 15.682l14.995 15.746 14.875 15.867c4.98 5.268 9.855 10.641 14.777 15.967 4.914 5.335 9.836 10.662 14.684 16.063 4.855 5.395 9.759 10.739 14.574 16.174l14.449 16.302 14.309 16.445c4.726 5.525 9.485 11.018 14.154 16.603 4.704 5.548 9.344 11.161 13.978 16.781 4.604 5.651 9.212 11.296 13.692 17.074Z" />
    <path fill="url(#Атмосфера_лого_07 1__b)"
        d="m488.725 388.623-.151 4.051c-.111 1.321-.04 2.932-.388 4.845a146.912 146.912 0 0 1-1.219 6.725c-.694 2.422-1.417 5.189-2.489 8.109-1.158 2.87-2.399 6.067-4.202 9.221-1.612 3.313-3.873 6.449-6.199 9.898-1.253 1.626-2.596 3.261-3.979 4.95-1.393 1.675-2.964 3.218-4.516 4.897-6.396 6.437-14.19 12.56-23.057 17.804-8.858 5.26-18.718 9.764-29.166 13.336a204.697 204.697 0 0 1-32.785 8.192 214.609 214.609 0 0 1-17.166 2.191c-2.893.251-5.805.476-8.738.611l-4.448.153-2.272.043-1.935.007c-3.322.028-6.148-.08-9.134-.198a202.18 202.18 0 0 1-8.739-.601 217.037 217.037 0 0 1-17.169-2.176 204.907 204.907 0 0 1-32.793-8.18c-10.451-3.569-20.315-8.071-29.176-13.332-8.872-5.242-16.664-11.375-23.065-17.812-1.552-1.682-3.122-3.226-4.515-4.903-1.379-1.694-2.73-3.323-3.981-4.952-2.325-3.452-4.581-6.595-6.197-9.907-1.798-3.159-3.043-6.355-4.197-9.228-1.068-2.923-1.793-5.691-2.484-8.114a163.835 163.835 0 0 1-1.186-6.652c-.345-1.903-.3-3.604-.408-4.924-.131-2.663-.145-4.054-.145-4.054l2.071 3.484 1.088 1.872c.392.685.789 1.438 1.352 2.196l3.552 5.206c1.541 1.803 3.005 3.876 4.841 5.928 1.961 1.976 3.771 4.241 6.19 6.259 4.522 4.242 10.026 8.431 16.515 12.134 12.866 7.539 29.424 13.374 48.014 17.233a300.331 300.331 0 0 0 29.09 4.457c5.002.555 10.074.933 15.146 1.251 2.536.156 5.072.245 7.594.356 2.472.082 5.112.13 7.257.106l2.165.01 1.827-.018 3.744-.093c2.522-.108 5.059-.185 7.595-.347 5.073-.311 10.145-.691 15.149-1.236a300.633 300.633 0 0 0 29.098-4.444c18.595-3.853 35.163-9.688 48.032-17.238 1.57-.976 3.213-1.857 4.676-2.871 1.452-1.024 2.878-2.039 4.326-2.997 2.674-2.101 5.29-4.129 7.512-6.282 2.414-2.023 4.227-4.287 6.185-6.266.988-.987 1.7-2.082 2.521-3.064.779-1.005 1.575-1.951 2.314-2.87l3.519-5.132c.559-.743.966-1.531 1.363-2.235l1.098-1.912 2.065-3.487Z" />
    <path fill="#000"
        d="M746.194 543.035v-56.354h13.067v130.753h-13.067v-61.599h-9.407c-13.022 0-22.533-.533-28.548-1.6-5.999-1.066-11.377-3.392-16.103-6.977-4.741-3.586-7.97-7.971-9.718-13.156-1.749-5.185-2.623-12.34-2.623-21.466v-25.955h12.8v26.71c0 10.948 2.208 18.622 6.608 23.037 4.414 4.4 11.762 6.607 22.058 6.607l9.23-.089 3.985.089h11.718Zm170.946-56.354 60.977 130.753h-14.119l-20.562-43.021h-56.325l-20.37 43.021h-14.578l61.777-130.753h3.2Zm-1.645 27.777-22.414 47.333h44.71l-22.296-47.333Zm277.475-3.511-10.31 7.911c-5.69-7.408-12.52-13.022-20.49-16.844-7.97-3.823-16.72-5.734-26.26-5.734-10.43 0-20.09 2.504-28.98 7.511-8.89 5.008-15.78 11.733-20.67 20.178-4.89 8.444-7.33 17.94-7.33 28.488 0 15.941 5.47 29.244 16.4 39.911 10.93 10.666 24.73 16 41.38 16 18.31 0 33.63-7.171 45.95-21.511l10.31 7.822c-6.52 8.296-14.65 14.711-24.4 19.244-9.74 4.533-20.63 6.8-32.66 6.8-22.88 0-40.92-7.615-54.14-22.844-11.08-12.859-16.62-28.385-16.62-46.577 0-19.141 6.71-35.244 20.14-48.311 13.42-13.066 30.23-19.599 50.44-19.599 12.21 0 23.23 2.414 33.07 7.244 9.83 4.829 17.89 11.6 24.17 20.311Zm86.08-11.467v-12.799h71.64v12.799h-29.16v117.954h-13.33V499.48h-29.15Zm163.12-12.799h13.07v54.843h66.57v-54.843h13.07v130.753h-13.07v-63.11h-66.57v63.11h-13.07V486.681Zm250.77 0 60.97 130.753h-14.12l-20.56-43.021h-56.32l-20.37 43.021h-14.58l61.78-130.753h3.2Zm-1.65 27.777-22.41 47.333h44.71l-22.3-47.333Zm229.83 102.976h-13.06v-60.71h-7.39l-47.03 60.71h-16.16l47.02-60.71c-10.96-.059-19.55-1.467-25.77-4.222-6.23-2.77-11.01-6.844-14.36-12.237-3.35-5.407-5.02-11.659-5.02-18.785 0-8.548 2.43-15.733 7.29-21.585 4.86-5.837 11.17-9.659 18.93-11.437 5.16-1.185 14.99-1.777 29.51-1.777h26.04v130.753Zm-36.13-117.954c-8.96 0-15.36.771-19.23 2.312-3.85 1.54-6.96 4.103-9.35 7.688-2.37 3.585-3.55 7.571-3.55 11.956 0 4.503 1.17 8.577 3.51 12.222 2.36 3.644 5.62 6.296 9.79 7.955 4.2 1.659 10.65 2.489 19.38 2.489l22.52-.178V499.48h-23.07Zm277.24 105.599h55.91V486.681h13.07v118.398h56.89V486.681h13.06v130.753h-151.99V486.681h13.06v118.398Zm243.39-118.398h13.33v49.066l52.27-49.066h17.56l-62.8 58.665 67.68 72.088h-17.4l-57.31-60.903v60.903h-13.33V486.681Zm242.64-3.289c19.8 0 36.36 6.607 49.71 19.822 13.35 13.214 20.02 29.481 20.02 48.799 0 19.14-6.65 35.377-19.97 48.71-13.32 13.333-29.54 20-48.7 20-19.39 0-35.76-6.637-49.09-19.911-13.35-13.274-20.02-29.333-20.02-48.177 0-12.563 3.04-24.207 9.11-34.933 6.09-10.726 14.37-19.125 24.86-25.199 10.5-6.074 21.85-9.111 34.08-9.111Zm.57 12.711c-9.67 0-18.84 2.518-27.51 7.555-8.66 5.052-15.43 11.837-20.29 20.385-4.88 8.533-7.31 18.044-7.31 28.548 0 15.54 5.39 28.666 16.17 39.362 10.77 10.711 23.74 16.059 38.94 16.059 10.15 0 19.54-2.459 28.18-7.378 8.64-4.933 15.38-11.659 20.21-20.192 4.84-8.548 7.26-18.029 7.26-28.474 0-10.385-2.42-19.762-7.26-28.162-4.83-8.385-11.65-15.096-20.43-20.148-8.79-5.037-18.11-7.555-27.96-7.555Zm274.06 121.331h-14.22l-43.34-101.02-44.04 101.02h-14.22l56.89-130.753h2.84l56.09 130.753Zm148.19-130.753 60.98 130.753h-14.12l-20.57-43.021h-56.32l-20.37 43.021h-14.58l61.78-130.753h3.2Zm-1.65 27.777-22.41 47.333h44.71l-22.3-47.333Z" />
    <path fill="#073769"
        d="M1111.44 126.526c15.24 0 39.24-4.196 47.62-8.385v54.852h-9.9v-9.902c0-10.281-7.62-18.286-17.91-18.666h-67.8v219.416c1.14 11.048 9.14 20.191 20.95 20.191h7.99v9.902h-87.99v-9.902h8c10.66 0 19.81-8.764 20.19-19.812V144.425h-67.428c-10.282.38-17.9 8.385-17.9 18.666v9.902h-10.289v-54.852c9.143 4.189 32.385 8.385 48 8.385h126.467Zm366.44 236.556c2.67 12.566 12.57 20.571 24.38 20.571h9.14v9.902h-87.23v-9.523h9.14c6.1 0 11.43-5.713 11.43-11.806v-.767l-15.62-175.604-73.52 163.039c-1.91 4.188-3.81 8.756-5.34 13.332-3.04 7.997-6.09 17.899-7.23 26.663h-8l-91.43-197.707-15.23 170.277v.767c0 6.093 5.33 11.806 11.42 11.806h8.77v9.523h-78.47v-9.902h9.14c11.81 0 21.71-8.005 24.38-20.571l28.19-241.511h7.99l101.72 220.174 99.8-220.174h8l28.57 241.511Zm660.17-84.566-4.95 62.85c-20.19 33.143-54.85 57.523-107.43 57.523-79.61 0-136.37-55.239-136.37-139.039 0-82.661 54.48-138.279 138.28-138.279 37.71 0 68.19 11.427 91.42 26.663l8.01 57.523h-9.15c-11.05-44.191-46.09-66.666-89.9-66.666-63.99 0-104 48-104 120.38 0 72.372 42.67 118.848 102.1 121.89 51.04 0 94.09-26.284 103.23-102.845h8.76Zm219.4-94.854c51.42 0 77.7 28.568 77.7 74.664 0 44.95-36.18 73.897-74.27 73.897-12.2 0-25.15-2.663-37.71-9.902v-9.143c1.9.379 3.8.766 6.09 1.145 3.43 1.139 8.38 1.139 12.95 1.139 19.05 0 47.61-5.327 59.04-39.237 1.15-4.188 2.29-11.04 2.29-18.279v-3.05c-1.14-32.377-16.76-54.093-46.85-54.093h-39.62v162.659c.38 11.048 9.52 20.191 20.57 20.191h8v9.902h-87.62v-9.902h8c11.05 0 20.19-9.143 20.57-20.191V200.803h-39.23c-30.1 0-45.71 21.716-46.86 54.093v3.05c0 7.239 1.15 14.091 2.29 18.279 11.43 33.91 40 39.237 59.04 39.237 4.57 0 9.53 0 12.96-1.139 2.28-.379 4.18-.766 6.09-1.145v9.143c-12.57 7.239-25.52 9.902-37.71 9.902-38.09 0-74.29-28.947-74.29-73.897 0-46.096 26.29-74.664 77.72-74.664h39.99v-26.664c-.38-11.047-9.52-20.57-20.57-20.57h-8v-9.902h87.62v9.902h-8c-11.05 0-20.19 9.523-20.57 20.57v26.664h40.38Zm269.67 210.652h-159.98v-9.902h7.99c11.81 0 19.81-8.764 20.95-20.571V155.853c-1.14-10.282-9.9-18.287-20.57-18.287h-7.99v-9.902h111.98c15.25 0 39.24-4.188 47.62-8.377v54.852h-9.9v-9.902c0-10.289-7.62-17.907-17.9-19.045h-72.38V253.75h59.42c8.77-.379 15.24-6.852 15.24-15.615v-8.377h9.91v64.754h-9.91v-8.757c0-8.005-6.85-14.856-14.47-15.243h-59.81v105.523h49.9c37.33 0 52.95-20.191 64-48.759h10.28l-24.38 67.038Zm161.12-267.409c50.28 0 79.99 28.189 79.99 75.043-.38 46.855-36.56 68.951-76.18 70.468-12.19 0-20.57-3.043-33.9-10.281v-5.334c1.14.379 2.66.758 4.19 1.145 2.66.759 6.09 1.139 11.05 1.139 18.66 0 47.61-5.714 59.04-39.616v.379c1.14-4.947 1.9-11.048 1.9-18.279v-3.05c-1.14-33.144-17.14-54.093-46.47-54.093h-40v219.036c1.15 11.048 9.14 20.191 20.95 20.191h8v9.902h-87.99v-9.902h8c11.81 0 19.8-9.143 20.95-20.191V155.473c-1.15-10.281-9.9-18.286-20.57-18.286h-8v-10.282h99.04Zm308.2 235.892v-.366c3.51 7.751 8 13.244 13.49 16.479 5.49 3.265 10.74 4.882 15.75 4.882h6.38v9.735h-88.87v-9.735h6.38c3.23 0 6.13-1.007 8.63-2.99 2.48-2.014 3.73-5.005 3.73-9.003 0-2.258-.37-4.516-1.1-6.744l-22.89-60.393h-94.11l-24.02 60.759v-.366c-.73 2.747-1.13 5.005-1.13 6.744 0 3.998 1.31 7.05 3.94 9.186 2.62 2.106 5.58 3.174 8.82 3.174h6.38v9.765h-79.87v-9.765h6.38c4.98 0 10.22-1.618 15.75-4.883 5.49-3.235 9.98-8.606 13.49-16.113h-.37l83.25-196.864c2.5-5.493 4.73-10.741 6.74-15.746 1.74-4.242 3.3-8.636 4.7-13.122 1.35-4.517 2.05-8.118 2.05-10.895h8.24l98.26 236.261Zm-64.88-75.377-39.73-105.74-41.62 105.74h81.35ZM918.284 362.797v-.366c3.509 7.751 7.995 13.244 13.488 16.479 5.493 3.265 10.742 4.882 15.747 4.882h6.378v9.735h-88.865v-9.735h6.378c3.235 0 6.134-1.007 8.636-2.99 2.472-2.014 3.723-5.005 3.723-9.003 0-2.258-.366-4.516-1.098-6.744l-22.888-60.393H765.67l-24.017 60.759v-.366c-.733 2.747-1.129 5.005-1.129 6.744 0 3.998 1.312 7.05 3.936 9.186 2.625 2.106 5.585 3.174 8.82 3.174h6.378v9.765h-79.863v-9.765h6.378c4.975 0 10.224-1.618 15.747-4.883 5.493-3.235 9.979-8.606 13.488-16.113h-.366l83.25-196.864a381.121 381.121 0 0 0 6.744-15.746c1.74-4.242 3.296-8.636 4.7-13.122 1.342-4.517 2.044-8.118 2.044-10.895h8.24l98.264 236.261Zm-64.879-75.377-39.733-105.74-41.624 105.74h81.357Z" />
    <path fill="url(#Атмосфера_лого_07 1__c)"
        d="M1691.23 413.427c84.61 0 153.2-68.588 153.2-153.195 0-84.608-68.59-153.195-153.2-153.195-84.61 0-153.19 68.587-153.19 153.195 0 84.607 68.58 153.195 153.19 153.195Z" />
    <g fill="#212121" opacity=".2">
        <path
            d="M1751.51 120.717c1.11.461 2.33.98 4.74 2.018.8.36 1.84.829 2.7 1.231-3.78-1.8-7.66-3.45-11.61-4.931 2.04.812 3.06 1.222 4.17 1.682Z"
            opacity=".2" />
        <path
            d="M1834.88 257.83c-.13-1.289-.31-3.014-.44-4.303-.23 2.52-.42 4.512-3.73 5.207-1.03-4.395-3.66-8.33-3.77-12.993.34-.284.79-.669 1.14-.962 2.18 2.511 2.36 6.111 4.65 8.555.41-.184.95-.443 1.36-.627.11-.394.25-.921.35-1.315 1.28 3.232 1.29 3.265 7.08 4.697-.32-40.268-16.17-76.836-41.86-103.994a153.164 153.164 0 0 0-40.36-27.962c-.11-.067-.23-.117-.35-.167-.84-.368-1.84-.812-2.61-1.155 6.45 3.189 6.65 3.29 7.15 3.549-3.63-1.532-7.12-3.415-10.75-4.947 2.36 1.063 17.1 7.81 28.33 15.588-1.88-1.206-3.76-2.445-5.64-3.65 3.49 2.712 7.34 4.956 10.47 8.129-8.14-5.174-15.7-11.252-24.27-15.756-3.18-1.465-6.27-3.139-9.53-4.42 5.53 2.947 17.03 9.083 21.39 11.829-1.85-.779-1.85-.779-10.41-4.655 8.47 5.007 8.47 5.007 9.81 6.07-.89-.477-2.06-1.13-2.91-1.666.32.753.97 1.674 1.56 2.235-.75-.368-1.72-.938-2.41-1.423-.22 1.39-.32 1.959 2.78 5.073-2.91-.778-4.57-3.549-7.29-4.613 2.47 2.88 5.91 4.613 8.57 7.267-.38-.042-.9-.092-1.29-.126-.05 1.574-.05 1.574 3.9 5.325-1.64-.109-1.64-.109-4.06-1.599.86 1.323 2.21 2.177 3.2 3.374-.33-.042-.33-.042-13.09-9.335 6.88 2.336 6.88 2.336 7.18 2.378.06-.41.14-.955.19-1.365-2.34-2.754-25.4-15.864-25.71-8.999l1.71 26.052c.12.478 3.02 11.712 7.36 9.695 1.42-.653 1.49-2.411 2.68-3.248 6.7 9.175 8.29 11.352 8.88 11.41 1.13-2.427 1.13-2.427 2.61-2.913-.85-2.143-1.98-5.006-2.83-7.158.33-.251.77-.594 1.1-.845-.78-5.601-7.07-9.234-5.56-15.639-2.02-2.947-2.02-2.947-2.9-5.073.34-.209.79-.486 1.14-.695 5.62 3.005 4.29 7.149 3.72 8.916 5.69 8.757 7.22 11.118 11.69 7.853.89.192 1.98.803 2.71 1.339-1.53 1.499-3.67 1.013-5.45 1.708.38 3.231 4.02 4.077 5 6.865l-.52.963h-.01c-.48-.746-1.35-1.583-2.06-2.11-.4.075-.94.184-1.34.268.07 2.101 1.52 4.688 2.43 6.588-.38.687-.64 1.783-.54 2.57-.82-.276-1.9-.761-2.64-1.213-.37.15-.85.36-1.22.51-1.52 3.868-9.35 1.984-10.4-.644-1.08-2.663-1.5-5.526-2.62-8.18-.99 1.072-.99 1.072 1.67 10.624-5.68 3.223-4.89 12.34-12.54 13.772-1.41 2.344-4.69 1.063-6.21 3.189 2.37 4.63 11.63 6.714 8.21 13.203-4.19.828-8.64-1.248-12.7 1.096-.44 2.696.28 6.379.59 9.1-.55.72-1.17 1.85-1.26 2.755.55.293 1.27.669 1.81.962.09 1.131.18 2.277.25 3.424 2.67.084 4.03 4.404 7.13 2.612 2.5-1.456 5.82-.803 8-3.114 3.13-3.323 3.04-8.296 5.97-11.729-.11-1.339-.29-2.57-.49-3.8 9.96-2.537 9.96-2.537 10.21-2.772 16.63 14.358 14.9 15.488 7.44 16.66 1.63 1.164 3.82 2.713 5.45 3.868-.45-3.198 3.79-6.162.76-9.435.32-.251.77-.594 1.09-.846.34.201.77.469 1.11.679-.46-2.428-3.22-3.123-4-5.308-.37.134-.86.318-1.22.444-3-2.252-5.17-6.045-6.2-8.096.48-.594 1.45-1.13 2.21-1.222 8.29 7.911 8.29 7.911 9.87 8.874 1.92 8.355 8.32 14.249 8.38 14.274.34-.712.54-1.825.42-2.604 1.83.41 1.83.41 2.94.184-1.06-.778-2.67-1.959-4.75-5.508.38-.084.89-.193 1.26-.268.27-.737.27-1.867-.01-2.604 6.36 1.825 4.3 10.582 10.39 12.608.62-.611 1.23-1.658 1.47-2.486 2.37 3.156 3.01 2.712 5.4 1.088 4.39 2.193 1.08 13.353-1.15 13.855a8.35 8.35 0 0 1-2.64.159 3.28 3.28 0 0 1-.2-.184c.05.059.11.117.16.184-5.41-.51-9.77-5.793-15.64-4.286-.38 1.021-.38 1.021-.47 4.814l-1.27.837c-4.34-1.105-15.99-7.828-16.07-7.895-.01-10.289-.01-10.289-13.36-7.894-15.37 2.754-15.37 2.754-15.59 2.662-1.32 1.072-2.22 2.52-3.33 3.776l-.43.393h-.02l-19.91 30.306c2.71 5.55 2.71 5.55.03 15.488-2.01 7.425 13.81 20.209 13.97 20.334 1.4 1.064 3.38 2.713 5.13 2.83.5.034 1.13-.301 1.61-.435 3.15-.837 16.75-3.608 16.78-3.608 4.55 0 8.09 3.482 12.6 3.599-.22 5.635-3.35 11.135-.8 16.903 2.28 5.174 1.94 8.388 1.17 13.202-.87 5.542-5.52 9.226-7.08 14.433-1.09 3.642.55 7.426-.57 11.068-1.65 5.324-1.6 11.067-4.09 16.165.16.352.38.821.54 1.172 11.15-2.561 11.15-2.561 15.55-6.094 6.9-5.517 26.87-27.359 27.91-28.69 4.82-6.128 3.54-14.366 7.21-20.896 4.4-7.861 12.34-13.001 16.36-21.164 2.76-5.6 3.28-8.706 3.28-12.482-3.47 3.131-5.24 3.357-7.48 3.633-.11-.929-.29-2.16-.45-3.081 14.45-13.687 24-22.72 14.03-28.991Z"
            opacity=".2" />
        <path
            d="M1748.47 182.445h-2.36c-.87-2.954-2.01-3.975-3.3-4.919-.73-.539-.73-.539-2.77-3.94-1.98.759-1.75-.693-1.45-2.532.26-1.633.33-2.174.05-2.692-.73-1.341-2.12 1.714-3.18.617-.19-.189-.2-.329.02-.953.31-.854.62-2.122-.33-3.262-2.45.711-2.72 1.372-2.19 5.445.15 1.097.25 1.489 1.25 1.731.85.207.91.324 1.12.71.58 1.103.2 2.427.8 3.526.28.512.32.577.63.964 2.19-.411 2.73.578 2.9.902.01.019 1 2.011.94 2.319-.16.862-1.28.302-1.56 1.01-.23.57 0 1.251.24 1.972.09.279.22.661 0 .824-.4.304-1.47-.196-1.35.468.22 1.263 1.47 1.676 2.14 2.566-.26.216-.51.42-2.79 4.048 2.67-1.646 4.61-2.099 10.93-2.549 1.28-.091 1.63-.401 1.05-.921-.27-.346-.83-.721-.89-1.154-.21-1.368.12-2.722.1-4.085v-.095Z"
            opacity=".2" />
        <path
            d="M1731.61 175.28c-.34.029-1.12.096-1.2.93-.09.982.92 1.591.87 2.557-.75.556-1.69.231-2.5.495-.3.095-.98.315-.77 1.122.53 2.112 1.63 1.466 2.09 1.19.36-.209.45-.21.49-.008.01.01.03 1.42-1.1 3.537-.19.342-.35.639-.25.878.21.531 1.42 1.314 1.58 1.386.1.042.27.113.42-.018.48-.416.4-1.146.87-1.565.56-.493 1.4-.394 1.94-.921.18-.172.35-.462.45-.689.07-.143.58-1.475-.42-4.286.51-.862.77-1.295.8-1.858.07-1.221-1.89-2.681-3.27-2.75ZM1714 144.455c-.81-4.854-5.69-2.749-5.89-2.657-.59.26-1.23.364-1.8.671-.5.27-.82.773-1.34 1.023a.728.728 0 0 1-.42.025c-.29-.067-.79-.286-.87-.998-.12-1.065-.29-1.268-1.32-2.049-1.65.08-.65 1.332.02 2.16-.65-.26-1.11-.26-1.33-.236-.95.101-1.34 1.153-1.01 1.461.21.191.82.135 1.36.086.59-.054 1.19-.085 1.5.17.38.306.71 1.815-1.55 1.864 1.3.456 2.16.996 2.36 1.481.34.831-.84.959-1.13 1.532.01.037.01.093.04.123.15.174.84.164 1.57.153 1.34-.019 2.33.995 3.59 1.219.62.111 1.32.237 2.09-.077a4.904 4.904 0 0 0 1.54-.989c.66-.664 1.01-1.557 1.66-2.231.23-.242.64-.015.85-.317.14-.201.27-1.332.08-2.414Zm98.13 191.304c-1.28 1.109-1.85 2.732-2.93 3.987-1.29 1.499-2.41 2.291-3.66 2.568-.83.186-1.55.346-2.09 1.06-.11.143-.24.341-.33.492-1.13 1.772-1.59 3.867-2.73 5.628-.98 1.505-2.54 2.524-3.43 4.106-2.83 5.074-2.75 5.916-2.72 6.233 3.16.622 15.01-17.142 16.55-19.953 1.31-2.395 1.83-3.815 1.55-4.222a.54.54 0 0 0-.21.101Zm-86.66-222.752c2.92.841 2.92.841 17.18 6.123 3.28 1.216 6.18 3.195 9.3 4.734 7.07 3.49 7.76 3.572 9.12 3.734-6.88-3.158-13.45-6.957-20.48-9.822-2.7-1.102-9.73-3.824-16.6-5.301-.97-.208-3.02-.629-3.86-.735 1.98.525 4.07.637 6 1.389-.22-.042-.44-.089-.66-.122Zm-169.38 148.764c.38-4.4-2.79-8.422-3.65-12.691-.16.444-.34.888-.55 1.333 1.95 3.58 1.77 7.953 4.2 11.358Zm59.98-131.53c.14-.084.28-.172.43-.255-.12.067-.26.155-.43.255Zm35.94 181.32c-3.28-1.716-1.8-6.062-4.48-8.111-3.2-2.446-7.65-1.127-10.84-3.604-1.43-1.112-2.79-2.31-4.2-3.453-6.54-5.32-15.18-6.309-22.17-10.71-2.8 1.071-5.02 3.601-8.36 3.336-.54 3.778-.54 3.778-1.86 5.143-1.33-1.513-1.33-1.513-7.83-.51-.8-.93-.8-.93-3.12-13.926-2.37-1.079-5.22.04-7.46-1.635.37-4.01 1.07-7.976 1.52-11.977-3.61-2.65-4.12 4.894-7.13 6.265-3.32 1.518-13.51-7.863-2.57-27.308 5.51 1.021 5.51 1.021 6.53.612.12-.896.67-2.094 1.34-2.701 2.54 1.098 2.54 1.098 8.07 1.097 1.14 3.785-.19 7.911 1.61 11.606l2.07.473c-1.3-10.64-1.3-10.64 13.41-36.994.05-.089 6.15-9.427 14.5-12.992.11-.466.27-1.087.39-1.553l.02.127c1.05-.379 1.98-.992 2.99-1.46-1.59 2.723-1.59 2.723-1.37 5.094 6.56-2.251 8.74-3.562 10.6-6.372l-.47-1.713c-1.28.877-2.23 2.143-3.56 2.964-1.44-.709-2.64-1.828-4.13-2.477.29-3.605.29-3.605-.21-4.937.97-.372 2.25-1.056 2.92-1.839l-.8-1.311c-2.55.136-4.09.217-10.79 6.506 7.36-8.318 9.91-9.642 9.94-9.653l15.08-1.967c-1.87 3.049-4.17 7.22-5.95 10.318 9.7-.598 9.7-.598 11.01-3.638-.25-.564-.57-1.316-.81-1.88-3.27.309-3.27.309-4.29-.159 3.03-4.829.81-10.463 2.37-15.517-7.6-2.689-3.08-11.038-6.1-15.992-1.83 1.445-2.6 3.912-4.81 4.999a17.238 17.238 0 0 1-2.49-1.546c.68-1.935 1.59-4.515 2.28-6.451-1.45-.76-1.45-.76-2.49-3.819-6.72.552-8.12 7.32-12.44 10.672.16 1.763.46 5.044-1.63 9.12-.07.125-6.51 12.502-9.77 13.079-1.01-1.805-1.05-1.875-1.33-4.769a1587.4 1587.4 0 0 1 2.12-6.251c-2.24-.04-2.24-.04-4.76-5.515-.83-.3-2.04-.422-2.92-.345 2.42-3.911 2.42-3.911 2.42-5.338l-1.46-.113c3.81-10.031 14.45-12.38 21.32-18.973-.22-.372-.51-.869-.73-1.241 16.65-10.416 16.65-10.416 18.41-12.153v-1.841c-4.24 1.799-6.45 6.692-11.36 7.463 4.02-3.608 4.02-3.608 4.99-5.072-.87.589-2.08 1.329-3.03 1.788 4.08-3.172 7.55-7.029 11.54-10.299-6.16 2.479-10.09 8.197-15.99 11.063 3.86-3.843 3.86-3.843 4.24-4.535-3.43 1.623-5.77 4.956-9.51 6.104-.27-.331-.62-.772-.89-1.102.33-.556.76-1.298 1.09-1.854-4.55 3.074-5.96 2.707-7.46 2.318 2.37-1.497 2.37-1.497 5.26-5.634-1.37.707-2.71 1.458-4.07 2.173 4.45-3.165 4.45-3.165 4.89-3.511-.17.067-.17.067-8.49 4.472 2.51-1.686 4.32-2.792 5.26-3.361a153.457 153.457 0 0 0-30.94 23.914 147.773 147.773 0 0 0-6.01 6.361c.04-.035.09-.081.13-.115-5.92 7.243-17.57 25.805-16.59 29.396l-7.74 18.615c-1.59 3.811-2.25 5.388-3.16 8.766-2.28 8.43 1.99 16.835 1.88 25.256.11-.173.22-.346.34-.521.85 8.828 7.03 28.508 7.08 28.599 3.44 5.986 11.52 5.181 15.4 10.514 4.88 6.834 12.67 10.372 18.4 16.25 2.01-2.457 2.01-2.457 3.08-2.819 2.26 3.715 4.21 6.925 1.5 24.754-1.23 8.033 11.44 17.903 21.61 25.835 11.29 8.797 8.31 23.794 15.03 34.575 5.52 8.85 5.85 9.076 7.27 10.027-.47-.836-.98-2.032-1.22-2.962 15.08 20.774 23.35 20.786 26.2 19.827l-15.99-13.946c.41-.13.95-.305 1.36-.435-.93-3.842-.93-3.842-2.85-4.387-.01-.447-.01-1.043-.02-1.491l1.23-.768c-.2-.438-.47-1.021-.66-1.459.22-.369.53-.862.76-1.231.89-.029 2.08-.197 2.96-.4 1.12-2.06 1.16-2.14-.18-4.843-.42-.134-.98-.313-1.39-.447-.02-.476-.06-1.111-.08-1.587 2.26.873 2.82.485 3.96-.943.06-.069 5.39-7.442 3.98-12.715-1.8-6.716 8.3-5.484 10.91-9.924.08-.135 8.99-22.409 9.21-24.213.33-3.575-.92-4.954-1.52-5.616l-28-10.547Zm-99.57-62.481c.84-2.217 1.17-4.432 1.2-6.646-1.46 2.328-1.62 4.518-1.2 6.646Zm147.42-127.11c-1.05-1.858-.65-2.003.07-2.266.29-.639-.14-1.22-.16-1.834l.53-.52c-.51-1.021-.67-2.197-1.38-3.134-.61-.817-1.67-1.061-2.34-1.808.27-.432.37-.453 1.18-.619-.05-.072-.11-.171-.16-.24-.23-.259-4.13-2.266-4.15-2.267-11.25.008-17.89 3.421-18.47 4.503.89-.409 2-.919 2.89.169-8.89 11.364-8.89 11.364-8.77 11.76.87-.566 1.16-1.866 2.43-1.914-.5 1.473.05 3.11-.71 4.541-1.25.248-1.84-1.263-3.05-1.124-.15.485-.15.485 2.21 2.91-.18 1.575-2.07 3.608-3.28 3.918-.91.233-2.29.584-4.3 5.292-2.67 6.234.11 18.104.14 18.208.04.105.17.21.27.258 1.17.563 2.34-.634 3.51.005.16.088.14.422.1.603-.36 1.88 2.26 2.915 3.21 2.541 1.83-.719 2.37-2.832 3.35-6.666.6-2.339.86-2.655 1.52-3.025.73-.412 1.36-.767 1.58-1.17.23-.435.29-.552.25-1.873-.06-1.945.67-2.924 5.07-4.885 2.08-.925 2.5-1.268 3.51-2.097.25-.204.55-.508.79-.722 2.06-1.858 2.55-2.3 2.93-2.837.51-.724.13-1.743.79-2.418.23-.229.55-.264 1.6-.174 5.08.443 8.38-3.046 9.55-4.567 1.91-2.459-.67-8.493-.71-8.548Z"
            opacity=".2" />
    </g>
    <path fill="url(#Атмосфера_лого_07 1__d)"
        d="M1818.17 282.775c-1.17-4.126-2.69-5.539-3.6-6.383.55-4.784-1.34-6.687-2.25-7.602.71-3.459 1.03-5.038-3.92-18.523-1.67-4.572.85-2.622.89-2.579.03.045 3.48 5.315 3.34 8.623.43.442 1.01 1.048 1.59 2.737.58 1.664.12 3.451.61 5.126.06.196.29.379.41.541.38.498 1.67 2.437 2.53 6.496.61 2.912.62 3.64.65 12.547-.07-.295-.17-.69-.25-.983Zm-10.58-34.709c-1.17-3.015-2.94-6.983-4.73-8.77 2.26 1.976 4.46 7.952 4.87 9.13-.04-.108-.09-.252-.14-.36Zm-14.49-25.432.01-.001-.02.003h.01v-.002Zm51.27 37.6c0-65.636-41.27-121.636-99.27-143.448h-.01c4.08 1.622 4.08 1.622 8.91 3.702.92.409 2.14.965 3.05 1.394-.88-.396-2.07-.923-2.96-1.318 6.66 3.288 6.66 3.288 7.2 3.572-3.76-1.58-7.35-3.544-11.12-5.112.16.067 16.46 7.29 28.65 15.725-1.89-1.206-3.75-2.438-5.64-3.644 3.49 2.709 7.34 4.954 10.47 8.125-8.14-5.175-15.69-11.251-24.26-15.755-3.19-1.467-6.27-3.14-9.54-4.424 5.53 2.95 17.04 9.088 21.39 11.834-1.84-.777-1.84-.777-10.41-4.656 8.47 5.004 8.47 5.003 9.81 6.068-.89-.473-2.06-1.13-2.91-1.667.32.755.97 1.68 1.57 2.237-.76-.367-1.73-.939-2.41-1.422-.23 1.387-.32 1.961 2.77 5.074-2.91-.78-4.56-3.547-7.29-4.617 2.47 2.88 5.91 4.615 8.58 7.269l-1.3-.126c-.05 1.572-.05 1.572 3.9 5.33-1.64-.109-1.64-.109-4.06-1.601.86 1.322 2.21 2.174 3.2 3.369-.33-.039-.33-.039-13.09-9.328 6.88 2.334 6.88 2.334 7.19 2.377.05-.411.13-.958.19-1.368-2.35-2.752-25.4-15.866-25.72-8.999l1.71 26.052c.12.479 3.03 11.71 7.36 9.697 1.41-.656 1.5-2.411 2.68-3.252 6.7 9.174 8.29 11.354 8.88 11.414 1.13-2.432 1.13-2.432 2.61-2.914l-2.83-7.157 1.1-.851c-.78-5.593-7.07-9.226-5.56-15.634-2.02-2.949-2.02-2.949-2.9-5.073.34-.209.8-.488 1.14-.698 5.62 3.008 4.29 7.149 3.72 8.918 5.69 8.76 7.22 11.114 11.69 7.857.89.185 1.98.796 2.71 1.339-1.53 1.494-3.67 1.009-5.45 1.708.38 3.227 4.02 4.073 5 6.863l-.52.963h-.01c-.48-.744-1.35-1.584-2.05-2.115-.41.082-.94.19-1.35.271.07 2.105 1.52 4.687 2.43 6.587-.38.69-.64 1.789-.53 2.569-.83-.271-1.9-.762-2.65-1.212l-1.23.511c-1.51 3.87-9.33 1.983-10.39-.644-1.08-2.66-1.5-5.528-2.62-8.176-.99 1.065-.99 1.065 1.67 10.622-5.68 3.219-4.89 12.336-12.54 13.77-1.41 2.341-4.69 1.059-6.21 3.193 2.37 4.628 11.63 6.712 8.22 13.196-4.2.835-8.64-1.248-12.71 1.097-.44 2.702.28 6.385.59 9.104-.56.718-1.17 1.85-1.26 2.756.55.287 1.27.671 1.82.958.08 1.135.17 2.276.25 3.422 2.66.084 4.03 4.408 7.12 2.615 2.51-1.452 5.83-.803 8-3.11 3.13-3.329 3.04-8.3 5.97-11.731-.11-1.341-.3-2.576-.49-3.803 9.96-2.535 9.96-2.535 10.21-2.767 16.63 14.351 14.9 15.487 7.45 16.661 1.63 1.159 3.81 2.705 5.44 3.865-.45-3.202 3.79-6.159.76-9.437.33-.254.76-.592 1.09-.845.33.202.78.472 1.11.675-.46-2.428-3.22-3.121-4.01-5.301-.36.133-.85.31-1.21.443-2.99-2.255-5.17-6.044-6.2-8.101.47-.59 1.46-1.131 2.21-1.217 8.3 7.912 8.3 7.912 9.87 8.875 1.92 8.351 8.32 14.245 8.38 14.271.34-.713.55-1.824.42-2.606 1.83.414 1.83.414 2.94.184-1.06-.78-2.66-1.959-4.75-5.511l1.26-.266c.27-.732.27-1.868 0-2.598 6.35 1.825 4.29 10.575 10.39 12.608.61-.615 1.22-1.66 1.46-2.494 2.37 3.159 3.01 2.72 5.4 1.088 4.39 2.197 1.08 13.36-1.15 13.855-6.76 1.502-11.51-5.874-18.32-4.126-.38 1.021-.38 1.021-.47 4.813l-1.26.839c-4.35-1.107-16-7.829-16.08-7.889-.01-10.292-.01-10.292-13.36-7.9-15.37 2.755-15.37 2.755-15.59 2.667-1.32 1.068-2.22 2.519-3.33 3.776l-.43.394h-.02l-19.91 30.299c2.71 5.557 2.71 5.557.03 15.487-2 7.43 13.82 20.215 13.98 20.338 1.39 1.064 3.37 2.711 5.12 2.827.5.033 1.13-.301 1.62-.43 3.14-.836 16.74-3.611 16.77-3.611 4.54-.001 8.09 3.483 12.6 3.603-.21 5.636-3.35 11.133-.8 16.899 2.29 5.175 1.94 8.39 1.17 13.206-.87 5.537-5.51 9.227-7.08 14.428-1.09 3.644.55 7.43-.57 11.073-1.65 5.317-1.6 11.061-4.09 16.166.16.35.38.817.54 1.167 11.15-2.564 11.15-2.564 15.55-6.089 6.9-5.52 26.87-27.366 27.91-28.693 4.83-6.129 3.55-14.363 7.21-20.895 4.41-7.865 12.34-13.002 16.36-21.167 2.76-5.602 3.28-8.707 3.28-12.477-3.47 3.129-5.24 3.351-7.48 3.633-.11-.929-.28-2.165-.45-3.086 14.45-13.683 24-22.722 14.03-28.988-.13-1.291-.31-3.011-.44-4.302-.23 2.52-.41 4.51-3.73 5.205-1.03-4.397-3.66-8.327-3.77-12.992.34-.289.8-.675 1.14-.964 2.18 2.512 2.36 6.109 4.65 8.56.41-.191.95-.445 1.36-.635.11-.393.25-.916.35-1.308 1.29 3.264 1.29 3.264 7.25 4.734.65 2.23.73 4.624 1.91 6.705-.28.854-.33 2.108-.16 2.989.28-.292.66-.681.94-.972 0 .159.08 16.348-1.86 29.538 1.59-3.337 2.41-10.024 3.66-20.146.29-3.882.44-7.804.44-11.761Z" />
    <path fill="url(#Атмосфера_лого_07 1__e)"
        d="M1746.22 180.292c.02 1.363-.31 2.717-.1 4.085.06.432.63.807.89 1.153.58.521.23.831-1.05.922-6.32.45-8.26.902-10.93 2.548 2.28-3.628 2.53-3.832 2.79-4.047-.67-.89-1.92-1.304-2.14-2.567-.11-.663.95-.164 1.35-.467.22-.164.09-.545 0-.824-.24-.722-.47-1.403-.24-1.973.28-.708 1.4-.148 1.56-1.01.06-.308-.93-2.299-.94-2.318-.17-.325-.7-1.313-2.9-.902-.31-.387-.35-.453-.63-.965-.6-1.099-.21-2.423-.8-3.526-.2-.386-.27-.502-1.12-.709-1-.242-1.1-.634-1.24-1.732-.53-4.072-.27-4.734 2.18-5.444.95 1.139.64 2.407.33 3.262-.22.624-.21.764-.02.953 1.06 1.097 2.45-1.958 3.18-.617.29.518.22 1.059-.05 2.691-.3 1.839-.53 3.292 1.45 2.532 2.04 3.401 2.04 3.401 2.78 3.941 1.29.943 2.42 1.964 3.29 4.919h2.36v.095Z" />
    <path fill="url(#Атмосфера_лого_07 1__f)"
        d="M1732.63 175.781c-.03.563-.28.996-.79 1.858.99 2.812.48 4.144.41 4.287-.09.226-.27.516-.45.689-.54.526-1.38.427-1.94.92-.47.42-.39 1.149-.87 1.566-.15.13-.32.059-.42.017-.16-.071-1.36-.854-1.58-1.385-.09-.24.06-.536.25-.879 1.13-2.116 1.11-3.526 1.11-3.537-.05-.202-.14-.2-.49.008-.47.276-1.57.922-2.1-1.19-.2-.806.48-1.027.77-1.121.81-.265 1.75.06 2.51-.495.04-.967-.97-1.576-.87-2.558.07-.833.85-.901 1.19-.929 1.38.068 3.34 1.529 3.27 2.749Z" />
    <path fill="url(#Атмосфера_лого_07 1__g)"
        d="M1711.76 142.206c.18 1.083.05 2.213-.09 2.414-.21.302-.62.075-.85.317-.65.674-1 1.567-1.66 2.232-.1.101-.64.623-1.54.988-.76.314-1.47.188-2.09.078-1.26-.225-2.25-1.239-3.59-1.219-.73.01-1.42.02-1.57-.154-.02-.03-.03-.086-.04-.122.29-.574 1.47-.702 1.13-1.533-.2-.485-1.06-1.024-2.36-1.48 2.26-.05 1.94-1.558 1.55-1.865-.31-.255-.91-.224-1.49-.17-.54.05-1.16.106-1.36-.086-.34-.308.05-1.359 1-1.461.22-.023.68-.024 1.33.237-.67-.829-1.67-2.081-.02-2.161 1.03.781 1.21.984 1.32 2.05.08.711.58.93.87.998.12.028.31.029.42-.026.52-.249.84-.752 1.34-1.023.57-.306 1.21-.41 1.8-.67.21-.092 5.08-2.198 5.9 2.656Z" />
    <path fill="url(#Атмосфера_лого_07 1__h)"
        d="M1840.47 294.474c-.18.756-.49 2.058-.62 2.28-.14-.269 1.53-7.165 1.54-7.231-.26 2.067-.76 4.238-.92 4.951Z" />
    <path fill="url(#Атмосфера_лого_07 1__i)"
        d="M1808.54 337.632c-1.54 2.81-13.39 20.575-16.54 19.952-.04-.317-.12-1.158 2.72-6.232.88-1.582 2.44-2.602 3.42-4.106 1.14-1.762 1.6-3.856 2.73-5.628.09-.151.23-.349.33-.493.54-.713 1.26-.874 2.09-1.059 1.25-.278 2.38-1.07 3.66-2.568 1.08-1.255 1.65-2.879 2.93-3.987a.556.556 0 0 1 .21-.102c.28.407-.24 1.828-1.55 4.223Z" />
    <path fill="url(#Атмосфера_лого_07 1__j)"
        d="M1721.74 110.227c6.87 1.476 13.9 4.199 16.6 5.301 7.03 2.864 13.6 6.664 20.49 9.822-1.37-.163-2.06-.245-9.13-3.734-3.12-1.539-6.01-3.519-9.3-4.735-14.25-5.281-14.25-5.281-17.18-6.123.22.033.44.081.67.122-1.94-.751-4.02-.863-6.01-1.388.84.106 2.89.527 3.86.735" />
    <path fill="url(#Атмосфера_лого_07 1__k)"
        d="M1679.28 325.475c-.22 1.804-9.13 24.079-9.21 24.214-2.6 4.44-12.7 3.208-10.91 9.923 1.42 5.274-3.92 12.647-3.98 12.716-1.14 1.427-1.69 1.815-3.96.943.03.476.06 1.11.08 1.586.42.134.97.313 1.39.448 1.34 2.702 1.3 2.783.18 4.843-.87.203-2.06.37-2.96.399-.23.37-.53.862-.76 1.231.2.438.46 1.022.66 1.459l-1.23.769c.01.447.01 1.043.02 1.49 1.92.545 1.92.545 2.85 4.387l-1.36.436 15.99 13.946c-2.85.959-11.12.946-26.2-19.828.25.93.75 2.127 1.22 2.963-1.41-.952-1.75-1.178-7.27-10.028-6.72-10.781-3.74-25.778-15.03-34.575-10.17-7.931-22.83-17.802-21.61-25.835 2.71-17.829.76-21.038-1.49-24.754-1.08.363-1.08.363-3.09 2.82-5.73-5.879-13.52-9.417-18.4-16.25-3.88-5.333-11.96-4.529-15.4-10.514-.05-.091-6.23-19.771-7.07-28.599-5.13 7.236 2.69 13.101 2.1 19.857-2.43-3.405-2.24-7.778-4.2-11.358 5.22-11.099-3.13-22.144-.13-33.234.92-3.378 1.57-4.956 3.16-8.767l7.74-18.614c-.98-3.592 10.67-22.154 16.59-29.397-.04.035-.09.081-.13.115a154.26 154.26 0 0 1 23.86-21.674c4.34-3.18 8.85-6.137 13.52-8.855-.75.447-2.74 1.635-5.69 3.616 8.32-4.406 8.32-4.406 8.49-4.472-.44.345-.44.345-4.89 3.51 1.36-.715 2.7-1.466 4.07-2.173-2.89 4.137-2.89 4.137-5.26 5.635 1.5.388 2.92.756 7.46-2.319-.33.556-.76 1.298-1.09 1.855.27.33.63.771.89 1.101 3.74-1.147 6.08-4.48 9.52-6.104-.39.692-.39.692-4.25 4.535 5.9-2.866 9.83-8.583 16-11.062-4 3.269-7.47 7.126-11.55 10.299.95-.459 2.16-1.199 3.04-1.789-.98 1.464-.98 1.464-5 5.073 4.91-.772 7.12-5.664 11.36-7.463v1.84c-1.75 1.738-1.75 1.738-18.41 12.153.22.373.51.869.74 1.242-6.87 6.592-17.52 8.941-21.33 18.973l1.46.112c0 1.428 0 1.428-2.42 5.339.88-.078 2.09.045 2.92.345 2.52 5.474 2.52 5.474 4.76 5.515-.64 1.875-1.48 4.375-2.12 6.25.28 2.894.32 2.965 1.33 4.77 3.26-.578 9.7-12.955 9.77-13.079 2.09-4.076 1.79-7.357 1.63-9.12 4.32-3.353 5.72-10.12 12.44-10.673 1.04 3.06 1.04 3.06 2.49 3.82-.69 1.935-1.6 4.516-2.28 6.451.7.531 1.71 1.153 2.49 1.545 2.21-1.087 2.98-3.553 4.81-4.998 3.03 4.954-1.5 13.302 6.11 15.992-1.57 5.053.65 10.687-2.38 15.516 1.02.468 1.02.468 4.29.159.24.564.56 1.317.81 1.881-1.31 3.039-1.31 3.039-11.01 3.638 1.78-3.098 4.09-7.27 5.95-10.318l-15.08 1.967c-.03.011-2.58 1.334-9.94 9.653 6.7-6.289 8.24-6.371 10.79-6.506.24.393.57.918.81 1.311-.68.782-1.96 1.467-2.93 1.838.5 1.332.5 1.332.22 4.937 1.48.649 2.68 1.769 4.12 2.478 1.33-.821 2.28-2.088 3.56-2.965l.47 1.713c-1.85 2.811-4.03 4.121-10.6 6.372-.22-2.37-.22-2.37 1.37-5.093-1 .468-1.94 1.081-2.99 1.459l-.02-.126a85.96 85.96 0 0 0-.39 1.553c-8.35 3.564-14.45 12.902-14.5 12.992-14.71 26.353-14.71 26.353-13.41 36.993l-2.07-.472c-1.79-3.695-.47-7.821-1.61-11.606-5.53 0-5.53 0-8.07-1.098-.67.607-1.22 1.805-1.33 2.701-1.03.41-1.03.41-6.54-.611-10.94 19.444-.75 28.825 2.57 27.308 3.01-1.371 3.53-8.916 7.13-6.265-.45 4-1.15 7.967-1.52 11.976 2.24 1.676 5.09.557 7.46 1.636 2.32 12.996 2.32 12.996 3.12 13.925 6.5-1.002 6.5-1.002 7.83.51 1.32-1.364 1.32-1.364 1.86-5.143 3.34.265 5.56-2.265 8.36-3.336 6.99 4.401 15.63 5.39 22.17 10.711 1.41 1.142 2.77 2.34 4.2 3.452 3.19 2.478 7.64 1.159 10.84 3.605 2.68 2.048 1.2 6.395 4.48 8.11l28.01 10.547c.6.663 1.84 2.042 1.51 5.616Z" />
    <path fill="url(#Атмосфера_лого_07 1__l)"
        d="M1695.35 109.301c.05.068.11.168.16.24-.81.165-.91.187-1.17.618.66.747 1.72.992 2.33 1.808.71.937.87 2.113 1.38 3.134-.16.156-.37.364-.52.521.02.614.44 1.194.15 1.834-.72.262-1.12.407-.06 2.266.03.054 2.61 6.088.71 8.548-1.18 1.52-4.48 5.009-9.56 4.567-1.04-.091-1.37-.055-1.6.173-.66.676-.27 1.694-.79 2.418-.38.537-.87.979-2.93 2.837-.24.215-.54.518-.79.722-1.01.829-1.43 1.172-3.5 2.097-4.41 1.962-5.14 2.94-5.08 4.886.04 1.321-.02 1.438-.25 1.873-.21.402-.85.758-1.58 1.17-.66.369-.92.685-1.52 3.024-.98 3.835-1.52 5.947-3.35 6.667-.95.373-3.57-.661-3.2-2.542.03-.18.05-.515-.11-.602-1.17-.64-2.34.557-3.51-.005-.1-.048-.23-.153-.27-.259-.03-.104-2.81-11.974-.14-18.208 2.01-4.708 3.39-5.059 4.3-5.291 1.22-.311 3.1-2.344 3.28-3.919-2.36-2.424-2.36-2.424-2.21-2.909 1.21-.139 1.8 1.371 3.05 1.124.76-1.431.21-3.069.71-4.542-1.27.048-1.56 1.348-2.43 1.914-.12-.396-.12-.396 8.77-11.76-.89-1.087-2-.578-2.89-.168.58-1.083 7.22-4.495 18.47-4.504.02.002 3.92 2.008 4.15 2.268Z" />
    <path fill="url(#Атмосфера_лого_07 1__m)"
        d="M1691.23 413.427c84.61 0 153.2-68.588 153.2-153.195 0-84.608-68.59-153.195-153.2-153.195-84.61 0-153.19 68.587-153.19 153.195 0 84.607 68.58 153.195 153.19 153.195Z" />
    <path fill="url(#Атмосфера_лого_07 1__n)"
        d="M1691.23 413.427c84.61 0 153.2-68.588 153.2-153.195 0-84.608-68.59-153.195-153.2-153.195-84.61 0-153.19 68.587-153.19 153.195 0 84.607 68.58 153.195 153.19 153.195Z"
        opacity=".77" />
</svg>